<svg xmlns="http://www.w3.org/2000/svg" viewBox="0 0 36 36"><g fill="#595f5f"><path d="M18 9.457L5.16 20.043c0 .016-.004.039-.012.066a.295.295 0 0 0-.011.067v10.719c0 .386.144.722.426 1.003.28.286.617.426 1.003.426h8.575V23.75h5.718v8.574h8.575c.386 0 .722-.14 1.003-.426.282-.28.426-.617.426-1.003v-10.72a.3.3 0 0 0-.023-.132zm0 0"/><path d="M35.75 17.633l-4.887-4.067V4.457a.698.698 0 0 0-.715-.715H25.86a.683.683 0 0 0-.511.203.683.683 0 0 0-.203.512v4.356l-5.45-4.555c-.472-.39-1.039-.582-1.695-.582-.656 0-1.219.191-1.695.582L.25 17.633a.634.634 0 0 0-.246.48.71.71 0 0 0 .156.524l1.383 1.652a.785.785 0 0 0 .469.246c.18.016.36-.039.535-.156L18 7.492 33.453 20.38a.692.692 0 0 0 .469.156h.066a.785.785 0 0 0 .469-.246l1.383-1.652a.715.715 0 0 0 .156-.528.645.645 0 0 0-.246-.476zm0 0"/></g></svg>