<svg height="512pt" viewBox="-69 0 512 512" width="512pt" xmlns="http://www.w3.org/2000/svg"><path d="m328.707031 173.050781h-120.0625l-14.75-22.34375 18.289063-21.84375c4.394531-5.253906 4.816406-12.75 1.050781-18.464843l-16.882813-25.582032c7.464844-8.972656 11.964844-20.503906 11.964844-33.054687 0-28.542969-23.21875-51.761719-51.761718-51.761719-28.539063 0-51.757813 23.21875-51.757813 51.757812 0 28.542969 23.21875 51.75 51.757813 51.75 4.785156 0 9.417968-.648437 13.8125-1.867187l10.695312 16.195313-18.285156 21.847656c-4.394532 5.25-4.816406 12.746094-1.054688 18.453125l9.839844 14.914062h-125.3125c-25.507812 0-46.25 20.753907-46.25 46.25v246.449219c0 25.496094 20.742188 46.25 46.25 46.25h282.457031c25.507813 0 46.25-20.753906 46.25-46.25v-246.449219c0-25.5-20.742187-46.25-46.25-46.25zm-172.152343-100.488281c-11.46875 0-20.8125-9.332031-20.8125-20.804688 0-11.480468 9.34375-20.8125 20.8125-20.8125 11.480468 0 20.816406 9.332032 20.816406 20.8125 0 11.515626-9.390625 20.804688-20.816406 20.804688zm187.460937 393.1875c0 8.4375-6.871094 15.304688-15.308594 15.304688h-282.457031c-8.4375 0-15.304688-6.867188-15.304688-15.304688v-246.449219c0-8.4375 6.867188-15.308593 15.304688-15.308593h282.457031c8.4375 0 15.308594 6.871093 15.308594 15.308593zm0 0"/><path d="m68.773438 343.851562c6.039062 6.042969 15.835937 6.042969 21.878906 0l13.429687-13.429687 13.433594 13.429687c6.039063 6.042969 15.839844 6.042969 21.878906 0 6.042969-6.039062 6.042969-15.835937 0-21.878906l-13.429687-13.429687 13.429687-13.433594c6.042969-6.042969 6.042969-15.835937 0-21.878906-6.039062-6.042969-15.835937-6.042969-21.878906 0l-13.433594 13.429687-13.429687-13.429687c-6.042969-6.042969-15.839844-6.042969-21.878906 0-6.042969 6.042969-6.042969 15.835937 0 21.878906l13.429687 13.433594-13.429687 13.429687c-6.042969 6.042969-6.042969 15.839844 0 21.878906zm0 0"/><path d="m235.5625 343.851562c6.039062 6.042969 15.839844 6.042969 21.878906 0l13.433594-13.429687 13.429688 13.429687c6.042968 6.042969 15.839843 6.042969 21.882812 0 6.042969-6.039062 6.042969-15.835937 0-21.878906l-13.433594-13.429687 13.433594-13.433594c6.042969-6.042969 6.042969-15.835937 0-21.878906s-15.839844-6.042969-21.882812 0l-13.429688 13.429687-13.433594-13.429687c-6.039062-6.042969-15.835937-6.042969-21.878906 0s-6.042969 15.835937 0 21.878906l13.429688 13.433594-13.429688 13.429687c-6.042969 6.042969-6.042969 15.839844 0 21.878906zm0 0"/><path d="m296.378906 380.886719-29.125 29.125-28.886718-28.886719c-6.042969-6.042969-15.839844-6.042969-21.882813 0l-29.125 29.125-28.886719-28.890625c-6.035156-6.039063-15.839844-6.039063-21.878906 0l-29.125 29.125-28.886719-28.886719c-6.042969-6.042968-15.839843-6.042968-21.882812 0-6.042969 6.042969-6.042969 15.839844 0 21.882813l39.828125 39.828125c6.042968 6.039062 15.839844 6.039062 21.882812 0l29.125-29.125 28.886719 28.886718c6.035156 6.035157 15.839844 6.042969 21.878906 0l29.125-29.125 28.886719 28.886719c6.042969 6.042969 15.839844 6.042969 21.882812 0l40.066407-40.0625c6.042969-6.042969 6.042969-15.839843 0-21.882812s-15.839844-6.042969-21.882813 0zm0 0"/></svg>