<svg width="96" height="96" viewBox="0 0 96 96" fill="none" xmlns="http://www.w3.org/2000/svg">
<path d="M74.5701 32.447H52.0583L49.2927 28.2576L52.7219 24.1619C53.5459 23.1768 53.625 21.7712 52.9189 20.6997L49.7534 15.9031C51.1531 14.2207 51.9968 12.0586 51.9968 9.70532C51.9968 4.35352 47.6433 0 42.2915 0C36.9404 0 32.5869 4.35352 32.5869 9.70459C32.5869 15.0564 36.9404 19.4077 42.2915 19.4077C43.1887 19.4077 44.0574 19.2861 44.8813 19.0576L46.8867 22.0942L43.4583 26.1907C42.6343 27.175 42.5552 28.5806 43.2605 29.6506L45.1055 32.447H21.6094C16.8267 32.447 12.9375 36.3384 12.9375 41.1189V87.3281C12.9375 92.1086 16.8267 96 21.6094 96H74.5701C79.3528 96 83.2419 92.1086 83.2419 87.3281V41.1189C83.2419 36.3376 79.3528 32.447 74.5701 32.447ZM42.2915 13.6055C40.1411 13.6055 38.3892 11.8557 38.3892 9.70459C38.3892 7.552 40.1411 5.80225 42.2915 5.80225C44.4441 5.80225 46.1946 7.552 46.1946 9.70459C46.1946 11.8638 44.4338 13.6055 42.2915 13.6055ZM77.4404 87.3281C77.4404 88.9102 76.1521 90.1978 74.5701 90.1978H21.6094C20.0273 90.1978 18.7397 88.9102 18.7397 87.3281V41.1189C18.7397 39.5369 20.0273 38.2485 21.6094 38.2485H74.5701C76.1521 38.2485 77.4404 39.5369 77.4404 41.1189V87.3281Z" fill="#D47878"/>
<path d="M25.8325 64.4722C26.9648 65.6052 28.8017 65.6052 29.9348 64.4722L32.4528 61.9541L34.9716 64.4722C36.1039 65.6052 37.9416 65.6052 39.0739 64.4722C40.207 63.3398 40.207 61.5029 39.0739 60.3699L36.5558 57.8518L39.0739 55.333C40.207 54.2 40.207 52.3638 39.0739 51.2307C37.9416 50.0977 36.1047 50.0977 34.9716 51.2307L32.4528 53.7488L29.9348 51.2307C28.8017 50.0977 26.9648 50.0977 25.8325 51.2307C24.6994 52.3638 24.6994 54.2 25.8325 55.333L28.3505 57.8518L25.8325 60.3699C24.6994 61.5029 24.6994 63.3398 25.8325 64.4722Z" fill="#D47878"/>
<path d="M57.1054 64.4722C58.2377 65.6052 60.0754 65.6052 61.2077 64.4722L63.7265 61.9541L66.2446 64.4722C67.3776 65.6052 69.2145 65.6052 70.3476 64.4722C71.4807 63.3398 71.4807 61.5029 70.3476 60.3699L67.8288 57.8518L70.3476 55.333C71.4807 54.2 71.4807 52.3638 70.3476 51.2307C69.2145 50.0977 67.3776 50.0977 66.2446 51.2307L63.7265 53.7488L61.2077 51.2307C60.0754 50.0977 58.2385 50.0977 57.1054 51.2307C55.9724 52.3638 55.9724 54.2 57.1054 55.333L59.6235 57.8518L57.1054 60.3699C55.9724 61.5029 55.9724 63.3398 57.1054 64.4722Z" fill="#D47878"/>
<path d="M68.5085 71.4163L63.0475 76.8772L57.6313 71.4609C56.4982 70.3279 54.6613 70.3279 53.5283 71.4609L48.0673 76.9219L42.6511 71.5049C41.5195 70.3726 39.6811 70.3726 38.5488 71.5049L33.0878 76.9658L27.6716 71.5496C26.5385 70.4165 24.7016 70.4165 23.5685 71.5496C22.4355 72.6826 22.4355 74.5195 23.5685 75.6526L31.0363 83.1204C32.1694 84.2527 34.0063 84.2527 35.1393 83.1204L40.6003 77.6594L46.0165 83.0757C47.1481 84.2073 48.9865 84.2087 50.1188 83.0757L55.5798 77.6147L60.996 83.031C62.1291 84.1641 63.966 84.1641 65.0991 83.031L72.6115 75.5193C73.7446 74.3862 73.7446 72.5493 72.6115 71.4163C71.4785 70.2832 69.6415 70.2832 68.5085 71.4163Z" fill="#D47878"/>
</svg>
