<svg xmlns="http://www.w3.org/2000/svg" viewBox="0 0 36 36"><path fill="#595f5f" d="M34.02 1.98C32.7.66 31.11 0 29.25 0H6.75C4.89 0 3.3.66 1.98 1.98.66 3.3 0 4.89 0 6.75v22.5c0 1.86.66 3.45 1.98 4.77C3.3 35.34 4.89 36 6.75 36h22.5c1.86 0 3.45-.66 4.77-1.98C35.34 32.7 36 31.11 36 29.25V6.75c0-1.86-.66-3.45-1.98-4.77zm-4.536 25.344c-.328.719-1.066 1.348-2.214 1.88-1.149.53-2.168.796-3.06.796-.25 0-.515-.02-.796-.059-.281-.039-.52-.078-.715-.117a7.693 7.693 0 0 1-.773-.21c-.32-.102-.551-.18-.692-.235a81.419 81.419 0 0 0-1.476-.55c-2.563-.938-5.067-2.63-7.512-5.075-2.445-2.445-4.137-4.95-5.074-7.512a81.419 81.419 0 0 0-.55-1.477c-.056-.14-.134-.37-.235-.69a7.693 7.693 0 0 1-.211-.774c-.04-.196-.078-.434-.117-.715A5.805 5.805 0 0 1 6 11.789c0-.89.266-1.91.797-3.059.531-1.148 1.156-1.886 1.875-2.214C9.5 6.172 10.289 6 11.039 6c.172 0 .297.016.375.047.078.031.207.172.387.422.18.25.375.566.586.949.21.383.418.754.62 1.113a49.684 49.684 0 0 1 .938 1.735c.047.078.149.226.305.445s.273.414.352.586c.078.172.117.336.117.492 0 .234-.16.52-.48.856-.321.335-.673.644-1.055.925a9.145 9.145 0 0 0-1.055.903c-.32.32-.48.582-.48.785 0 .11.027.238.081.387.055.148.106.27.153.363.047.094.12.226.222.398.102.172.168.282.2.328.86 1.547 1.847 2.88 2.965 3.996 1.117 1.118 2.449 2.106 3.996 2.965.047.032.156.098.328.2.172.101.304.175.398.222.094.047.215.098.363.153.149.054.278.082.387.082.25 0 .594-.258 1.031-.774.438-.515.883-1.027 1.336-1.535.453-.508.82-.762 1.102-.762.156 0 .32.04.492.117.172.079.367.196.586.352.219.156.367.258.445.305l1.243.68c.828.437 1.52.824 2.074 1.16.554.335.855.566.902.69.031.08.047.204.047.376 0 .75-.172 1.539-.516 2.363zm0 0"/></svg>