<svg xmlns="http://www.w3.org/2000/svg" viewBox="0 0 36 36"><path fill="#595f5f" d="M33.586 9.406a17.92 17.92 0 0 0-6.55-6.55C24.276 1.245 21.265.44 18 .44s-6.277.805-9.035 2.414a17.92 17.92 0 0 0-6.55 6.551C.804 12.164 0 15.176 0 18.441c0 3.922 1.145 7.45 3.434 10.579 2.289 3.132 5.246 5.3 8.87 6.503.423.079.735.024.938-.164a.909.909 0 0 0 .305-.699l-.012-1.265a216.27 216.27 0 0 1-.012-2.086l-.539.093c-.343.063-.777.086-1.3.082a10.01 10.01 0 0 1-1.63-.164 3.647 3.647 0 0 1-1.57-.703 2.971 2.971 0 0 1-1.03-1.441l-.235-.54c-.157-.359-.403-.757-.739-1.195-.335-.437-.675-.734-1.02-.89l-.163-.117a1.713 1.713 0 0 1-.305-.282 1.29 1.29 0 0 1-.21-.328c-.048-.11-.009-.199.116-.273.125-.07.352-.102.68-.102l.469.07c.312.063.7.25 1.16.563.461.313.84.719 1.137 1.215.36.644.793 1.133 1.3 1.469.508.336 1.02.5 1.536.5.515 0 .96-.04 1.336-.114.375-.078.726-.199 1.054-.351.14-1.051.524-1.856 1.149-2.418-.89-.09-1.692-.235-2.403-.422a9.574 9.574 0 0 1-2.203-.914 6.314 6.314 0 0 1-1.886-1.57c-.5-.625-.91-1.446-1.23-2.461-.321-1.016-.481-2.188-.481-3.516 0-1.89.617-3.5 1.851-4.828-.578-1.422-.523-3.012.164-4.777.453-.145 1.125-.036 2.016.312.89.355 1.543.656 1.957.906.414.246.746.461.996.633a16.634 16.634 0 0 1 4.5-.61c1.547 0 3.047.204 4.5.61l.89-.562c.61-.375 1.329-.72 2.157-1.032.828-.312 1.46-.398 1.898-.257.703 1.765.766 3.359.188 4.777 1.234 1.332 1.851 2.941 1.851 4.832 0 1.324-.16 2.5-.48 3.523-.32 1.028-.734 1.844-1.242 2.461a6.551 6.551 0 0 1-1.899 1.559 9.573 9.573 0 0 1-2.203.914c-.71.187-1.512.332-2.402.426.812.703 1.219 1.812 1.219 3.328v4.941c0 .282.097.516.293.703.195.188.503.243.925.164 3.625-1.203 6.582-3.37 8.871-6.503C34.856 25.887 36 22.36 36 18.438c0-3.262-.805-6.274-2.414-9.032zm0 0"/></svg>