<svg xmlns="http://www.w3.org/2000/svg" viewBox="0 0 36 36"><g fill="#595f5f"><path d="M3.457 12.574c.453.324 1.828 1.278 4.117 2.864 2.29 1.59 4.043 2.808 5.262 3.667.137.094.418.297.855.614.434.312.797.566 1.082.761.29.196.637.415 1.047.653.41.242.793.422 1.157.543.359.12.695.18 1.003.18h.04c.308 0 .644-.06 1.003-.18.364-.121.75-.301 1.157-.543.41-.238.758-.457 1.043-.653.289-.195.652-.449 1.086-.761.437-.317.718-.52.855-.614 1.23-.859 4.367-3.035 9.402-6.53a9.494 9.494 0 0 0 2.45-2.47C35.672 9.141 36 8.13 36 7.07c0-.883-.316-1.64-.953-2.27-.637-.628-1.39-.945-2.262-.945H3.215c-1.031 0-1.824.352-2.383 1.047C.277 5.598 0 6.47 0 7.512c0 .843.367 1.758 1.105 2.742.735.984 1.52 1.758 2.352 2.32zm0 0"/><path d="M33.992 14.727c-4.394 2.972-7.73 5.28-10.004 6.93-.765.562-1.383 1-1.86 1.316-.476.312-1.108.636-1.898.965-.789.328-1.527.492-2.21.492h-.04c-.683 0-1.421-.164-2.21-.492-.79-.329-1.422-.653-1.899-.965a50.363 50.363 0 0 1-1.86-1.317c-1.804-1.324-5.132-3.636-9.984-6.93A10.683 10.683 0 0 1 0 12.977V28.93c0 .883.316 1.64.945 2.27a3.098 3.098 0 0 0 2.27.945h29.57c.883 0 1.64-.317 2.27-.946A3.083 3.083 0 0 0 36 28.93V12.978a11.062 11.062 0 0 1-2.008 1.75zm0 0"/></g></svg>